PathFileType	4	(X/Y/Z)	Walk1_0-155.trc
DataRate	CameraRate	NumFrames	NumMarkers	Units	OrigDataRate	OrigDataStartFrame	OrigNumFrames
30	30	7	22	m	30	135	155
Frame#	Time	Hip			RHip			RKnee			RAnkle			RBigToe			RSmallToe			RHeel			LHip			LKnee			LAnkle			LBigToe			LSmallToe			LHeel			Neck			Head			Nose			RShoulder			RElbow			RWrist			LShoulder			LElbow			LWrist		
		X1	Y1	Z1	X2	Y2	Z2	X3	Y3	Z3	X4	Y4	Z4	X5	Y5	Z5	X6	Y6	Z6	X7	Y7	Z7	X8	Y8	Z8	X9	Y9	Z9	X10	Y10	Z10	X11	Y11	Z11	X12	Y12	Z12	X13	Y13	Z13	X14	Y14	Z14	X15	Y15	Z15	X16	Y16	Z16	X17	Y17	Z17	X18	Y18	Z18	X19	Y19	Z19	X20	Y20	Z20	X21	Y21	Z21	X22	Y22	Z22
136	4.533333333333333	1.7387496105584095	0.8953890701133955	0.37989620943216534	1.7768112681174375	0.8713124116732945	0.4833155999746316	1.9478392359433874	0.5434027372663462	0.4704670855548402	1.8888784106996916	0.1326578706137929	0.4699427498817094	2.1161044005331204	0.047201229356971	0.4943203093500518	2.069045081805454	0.030138182882586368	0.5218286216403578	1.8458774388389119	0.06264672201681007	0.46478625061255574	1.7195826462851371	0.8694685724023812	0.27837710504699337	1.6709024301159927	0.5059219968398992	0.29293435881877766	1.6170971383815433	0.10841416391625966	0.319217704631563	1.8307908907563377	0.003759434105980842	0.3162834941657552	1.7235709575252	0.026246323978969387	0.2334900085513061	1.5796353664895086	0.031002767013479128	0.3382615094410726	1.6389300731664158	1.586539430668432	0.358935026466215	1.6880307317975838	1.8385726763286572	0.3649238829063179	1.8426826771436837	1.6594888919565396	0.36071896660735386	1.6089178977057295	1.4607920440502853	0.5373345914015222	1.6082626085559615	1.156846612172107	0.6016734545962669	1.62378617137511	0.9025859471611268	0.6415494571674422	1.670280087236513	1.4717411071557323	0.21298036036175727	1.7676391166892675	1.1853486901201056	0.12918261122054284	1.9222622038177304	1.018299776047913	0.10974604869307172
137	4.566666666666666	1.7720555124633595	0.8930490865475771	0.38131149576182066	1.8045476487582706	0.8700043970312699	0.4849629842486053	1.9196593166657276	0.514911401059311	0.4731837519949011	1.998703082182347	0.12222033015287807	0.4775134556397482	2.2244711533074857	0.08211944319636695	0.49462942566889084	2.194907103879134	0.05662855999344441	0.5250692543473083	1.9756417520998606	0.0493882859339635	0.48057838363959393	1.7474023635533085	0.86525907458226	0.2824521511292691	1.6894029096644942	0.4997439304613644	0.29476983481441515	1.6205987187902493	0.10593100946878649	0.3211639045551196	1.7923700200446837	0.02498880445166498	0.2810231704282384	1.7352642861818188	0.012233579124194429	0.23120528980226113	1.5893454555281317	0.02497573462711437	0.33255363507946284	1.6711970533541625	1.5840942011854302	0.3591199302121466	1.7192684587988656	1.8355199690304704	0.3679647108007628	1.8755753350667281	1.6526125215194596	0.36398391602905167	1.6460641618139453	1.460265494057335	0.5394607234198107	1.6245776696153693	1.155837864544255	0.6021125466939041	1.6330064575871712	0.9026245088377419	0.6441648593274798	1.7025908891697685	1.4698089380392938	0.21694003587179458	1.7531439081584628	1.1722944757622213	0.08078545317145967	1.9676544064988528	1.0286649258183123	0.11060981203926962
138	4.6	1.8055909934858454	0.8892168259960028	0.38618229942770266	1.840142006201562	0.8702233964067219	0.48784714456921824	1.9504954874824871	0.5045402537151654	0.47066392722648337	2.083632839453574	0.12050752037549048	0.4835306442620244	2.300798110015444	0.10586899944647589	0.4912443918596049	2.2804715145510093	0.07962600883638883	0.5212909392709971	2.0682304233779583	0.051680896738613674	0.48794576641611725	1.7843019157322397	0.8674803208702385	0.282572081993892	1.7117354503133737	0.4945145740667028	0.295074035063509	1.6212366350840735	0.1039608601995223	0.32131069265129397	1.7958968363211607	0.01928780281665218	0.2857922083849461	1.7343983386960087	0.009132111500313874	0.23735434716989798	1.5861618454943551	0.022830212225960402	0.33650734968573826	1.707947030324221	1.5768151672078192	0.36150664632871643	1.7512225235087957	1.831407761961449	0.36538533932662015	1.909532258994407	1.6483601475908802	0.3561578627318909	1.680995417151633	1.4572622683943446	0.5430872671846058	1.6479233342095208	1.154164723598122	0.6029917726794406	1.6505353817255561	0.8957640465980921	0.6481513801503525	1.737369007357869	1.4652337824165629	0.221582232677329	1.7864952146164716	1.1665160197754294	0.07940279881501029	2.008428361921658	1.0343329876342977	0.11334477418519306
139	4.633333333333334	1.843612420691143	0.8859654769666107	0.38851272720112967	1.8778264509382825	0.8625222819065393	0.48996868982696234	1.984128644658017	0.4938056721563527	0.4687095363860012	2.14387150980407	0.13468675075089817	0.4863063635773015	2.3940549519483754	0.13247600191587983	0.4868943883262087	2.34235164169907	0.09410478729258355	0.5234104153069641	2.138139753443254	0.06417604637559929	0.490683686663425	1.8204444692097907	0.8624449456431437	0.282797980235346	1.7372227449733393	0.4913155374641889	0.2941960632125602	1.62335424391382	0.10515699178241725	0.3216977258892135	1.7986718104300683	0.018554319577813082	0.283156701953006	1.7402608880881594	0.003866382315353479	0.23097046485158904	1.5890339643641913	0.033643679022936315	0.33525614995286174	1.741916865916066	1.5716312512412736	0.36848419433877316	1.7847158309922846	1.8251922430896161	0.37333371267086646	1.940658419334787	1.6426927900766033	0.3578388968820366	1.7138725444151255	1.4504564964608144	0.5508772060173578	1.677314368658206	1.151000525048441	0.6074057289427207	1.6787585991967928	0.8936397893140565	0.6544885120282395	1.7712729376874619	1.4564530422602566	0.22669633728319305	1.824496906380682	1.1596774102907064	0.08635436585262128	2.0462585924932326	1.0333275633238634	0.11902967005066778
140	4.666666666666667	1.8820800988625452	0.8778105058402631	0.39233727615083036	1.9218471511858644	0.8528320756708926	0.49592553445054666	2.0181108130691188	0.48264775568905927	0.4712464742554073	2.1845052780644463	0.12294521258311479	0.48861729037762835	2.417945655342816	0.11263365405362392	0.48695824830525025	2.373667909536591	0.07961135038560131	0.5221382137568306	2.2071696594770547	0.030396840689734587	0.4683942711137844	1.8604124492525351	0.8549545730461912	0.2867916297494061	1.7656860727069787	0.491227413065885	0.29370868157739455	1.623932453831764	0.10560705549365934	0.31871066001509396	1.8026086863689066	0.01620086612359121	0.2843462365918368	1.7454522330114035	0.0014711438089540338	0.2294520846055658	1.5868619925132523	0.041309840363421176	0.3447142718987387	1.7726349955491498	1.5671016626685723	0.37332385220781394	1.8134623468483781	1.8204068554963315	0.37583410134574086	1.9699621024027185	1.6375924186112782	0.36278863605773276	1.7460367949366329	1.4432652701012796	0.5566703792088957	1.7097319541747051	1.1436246071803902	0.6143892647211578	1.706060736670951	0.8885835045294074	0.6591014933350353	1.8053345999425834	1.4512619331463763	0.23263424406856117	1.8551876229643443	1.1539951795368435	0.09181228015189795	2.1355975486996024	1.0157775784334238	0.13008216801405137
141	4.7	1.9209123391276255	0.8677225343663727	0.3992175373655867	1.9663402234614333	0.8494339555641459	0.5022924539628739	2.0548002688649416	0.47624610406338275	0.4771482117547157	2.202704713376918	0.11811460421296274	0.4842912626150931	2.435445832610009	0.0857935339933517	0.4899335858598971	2.396273063045435	0.05663362777484213	0.5216219151233464	2.217871056204055	0.020403403165161392	0.46593283386564	1.902207696060518	0.8547009396367587	0.2903125120948103	1.7962912034016392	0.4921841929888561	0.2930210943873602	1.6348124291529536	0.10930038802153201	0.3191320739475642	1.7975012324736492	0.011648534064633174	0.2797020051805237	1.7379988463428098	0.0031701445848160374	0.2323598085729787	1.5936620142513815	0.04690581778790736	0.3510145217303691	1.8071539662092024	1.5567830280133628	0.3795774522404863	1.8455703521165545	1.816192814372127	0.37818306132075324	2.000277699606993	1.6300800647177878	0.3742643170208912	1.778931659733558	1.4359736971747274	0.5591089766014967	1.7482565606774096	1.136539500140422	0.6199251445454751	1.7383773956013542	0.8790494250658706	0.6631341211730957	1.8405207789836933	1.4439673263647976	0.24182446967701057	1.9304037490033037	1.1549608224448513	0.1362722569133615	2.1570521150551825	0.9954074493267696	0.13361185446725926
142	4.733333333333333	1.9610047827336983	0.8612922339749114	0.40638524956835587	2.010510268420428	0.8473452285983664	0.5082669972903154	2.0929771293973265	0.47485191838051916	0.47835587010461117	2.220395735946362	0.10362195759082413	0.4789873864938808	2.4388436960609736	0.04914878303710563	0.4882411132690938	2.411065819278536	0.031499553942537034	0.5218918361207505	2.227098422903138	0.0199947634538556	0.4644101051567113	1.9402919624018018	0.8504332160508093	0.2966414273538163	1.832581344364795	0.48945049879433966	0.2926015665474332	1.640843882490712	0.12235627002524416	0.31771970071599864	1.803110194960774	0.0026175301527832694	0.27722582811563107	1.7450800531472066	0.0013466478335879735	0.23523623134813587	1.582976946342697	0.05501168901060671	0.33068874221776734	1.8419245329574874	1.5484198500448811	0.3859955727612519	1.8745458348869715	1.8071479319091772	0.3791304838791794	1.9665170176601279	1.6621011042532874	0.34287857551578105	1.8154090792208504	1.4289440948308048	0.5619236401689348	1.7858829787524622	1.1302496529632238	0.6244300720532192	1.7824167981352343	0.8694190409644325	0.6709821992999837	1.8715377402374902	1.4381366050628628	0.251634945072693	1.9587122217556063	1.141726607048632	0.14576636411181948	2.1708740177951826	0.9754975010964917	0.13453229271220943
